<?xml version="1.0" encoding="UTF-8"?>
<svg version="1.1" xmlns="http://www.w3.org/2000/svg" width="512" height="512">
<path d="M0 0 C2.37293742 -0.00407671 4.74587293 -0.00942469 7.11880493 -0.01593018 C13.49898153 -0.02947888 19.8790108 -0.02435708 26.25918961 -0.01479292 C30.25876799 -0.01023054 34.2583257 -0.0104813 38.25790405 -0.0132637 C39.26032356 -0.01395325 39.26032356 -0.01395325 40.28299397 -0.01465673 C41.64146941 -0.01561611 42.99994484 -0.01658875 44.35842025 -0.0175745 C57.03499084 -0.02608677 69.71149586 -0.01636018 82.38805568 -0.0001734 C93.21609333 0.01322597 104.04403441 0.0108967 114.87207031 -0.00292969 C127.50971592 -0.0190597 140.14730437 -0.02526318 152.78495884 -0.0160929 C154.1378587 -0.01513746 155.49075857 -0.01419434 156.84365845 -0.0132637 C157.50895166 -0.01280088 158.17424487 -0.01233805 158.85969847 -0.0118612 C163.50131869 -0.00929344 168.14290061 -0.01374438 172.78451538 -0.02070236 C179.05565292 -0.02944855 185.32661038 -0.02321211 191.59772873 -0.00601959 C193.88197915 -0.00209525 196.16624505 -0.003118 198.45048904 -0.00980759 C236.89135469 -0.11189703 271.12974043 8.14911422 299.55078125 35.38818359 C300.39640625 36.19255859 301.24203125 36.99693359 302.11328125 37.82568359 C303.31984375 39.09412109 303.31984375 39.09412109 304.55078125 40.38818359 C305.51371094 41.35884766 305.51371094 41.35884766 306.49609375 42.34912109 C328.44417316 65.36783853 338.72108105 97.39896671 338.69122314 128.75056458 C338.69567983 130.24186112 338.69567983 130.24186112 338.70022655 131.76328486 C338.70884434 135.06900528 338.71041591 138.37468919 338.71191406 141.68041992 C338.71654726 144.06158525 338.72157259 146.44274984 338.72695923 148.82391357 C338.74003969 155.27700367 338.7465578 161.73008683 338.75096989 168.18318772 C338.75374396 172.22340604 338.75798345 176.26362201 338.76247406 180.30383873 C338.77466016 191.52040487 338.78495966 202.73696914 338.78834915 213.95354176 C338.78856872 214.6699725 338.78878828 215.38640324 338.7890145 216.12454401 C338.78923278 216.84256062 338.78945106 217.56057723 338.78967595 218.30035192 C338.7901194 219.75500349 338.79056596 221.20965507 338.79101562 222.66430664 C338.79123705 223.38584373 338.79145848 224.10738081 338.79168662 224.85078266 C338.79562677 236.51776906 338.81305977 248.18469271 338.83637515 259.85165492 C338.86019551 271.86975726 338.87255589 283.88782825 338.87371707 295.90595454 C338.87462804 302.63750944 338.88055951 309.36897023 338.89853668 316.10050392 C338.91514558 322.44288336 338.91711128 328.78510887 338.90839767 335.12750244 C338.90763403 337.43916426 338.91187978 339.75083479 338.92185593 342.0624752 C339.08553026 382.39495328 329.10225283 416.90858361 300.80078125 446.57568359 C287.08580341 459.73086642 270.38688359 469.66832698 252.42578125 475.82568359 C251.78342529 476.04844971 251.14106934 476.27121582 250.47924805 476.50073242 C234.27489158 481.6369612 218.07476763 481.82702796 201.25463867 481.79223633 C198.74273883 481.79794964 196.23084159 481.80491759 193.71894836 481.81303406 C187.64317857 481.8290289 181.5675491 481.83108764 175.49176475 481.82582115 C170.54572617 481.82175505 165.59971796 481.82325171 160.6536808 481.82856941 C159.94571539 481.82931783 159.23774997 481.83006626 158.50833106 481.83083736 C157.06940576 481.83236907 155.63048047 481.83390742 154.19155518 481.83545233 C140.74247141 481.84913343 127.29344606 481.84377085 113.84436367 481.83226711 C101.58543041 481.82234071 89.32664822 481.83527297 77.06773826 481.8592013 C64.42902917 481.8836819 51.79039017 481.8931782 39.15165788 481.88654858 C32.07650089 481.88307599 25.00145988 481.88515731 17.92632103 481.90279961 C11.26861283 481.91919751 4.61123644 481.91420175 -2.04648018 481.89549446 C-4.47466735 481.89183634 -6.90287622 481.8948348 -9.33104324 481.90538025 C-46.80845792 482.05558151 -80.08632984 471.16772717 -107.28515625 444.70849609 C-129.53767962 422.0172292 -142.60245511 390.48666198 -142.59638977 358.80401611 C-142.60006646 357.76181907 -142.60374315 356.71962204 -142.60753125 355.64584327 C-142.61851332 352.16574591 -142.62240265 348.68567846 -142.6262207 345.20556641 C-142.63248965 342.70484829 -142.63913683 340.2041311 -142.64613342 337.70341492 C-142.66531725 330.20788493 -142.67595632 322.71236289 -142.68486121 315.21681559 C-142.68925593 311.67692963 -142.69461971 308.13704514 -142.69985008 304.59716034 C-142.71685705 292.81192969 -142.7313472 281.02669992 -142.73859882 269.24145889 C-142.74050836 266.18799081 -142.74242874 263.13452274 -142.74438477 260.08105469 C-142.74486851 259.32223691 -142.74535225 258.56341914 -142.74585065 257.78160688 C-142.75413604 245.5124129 -142.77945005 233.24331688 -142.81196544 220.97416559 C-142.84515938 208.34479523 -142.86305874 195.71547445 -142.86624306 183.08606029 C-142.868397 176.00851659 -142.8769801 168.93111566 -142.90270424 161.85361481 C-142.92688649 155.18538061 -142.93016025 148.51744579 -142.91994286 141.84916115 C-142.91945084 139.41613473 -142.9256711 136.98309512 -142.9394989 134.55010796 C-143.14687302 95.86451338 -131.73801587 63.36880937 -104.44921875 35.38818359 C-75.89042541 6.73636487 -38.96986922 -0.11412623 0 0 Z " fill="#2C426B" transform="translate(165.44921875,11.61181640625)"/>
<path d="M0 0 C3.6153693 0.01907692 7.23075069 0.02054114 10.84616256 0.02407622 C17.65602492 0.03330748 24.46573844 0.05779685 31.275536 0.08812469 C40.50333924 0.12830701 49.73118476 0.14419588 58.95905375 0.16163135 C73.44548551 0.18962734 87.93160356 0.24945492 102.4180162 0.30418181 C102.4180162 35.28418181 102.4180162 70.26418181 102.4180162 106.30418181 C98.1280162 106.30418181 93.8380162 106.30418181 89.4180162 106.30418181 C89.4180162 106.96418181 89.4180162 107.62418181 89.4180162 108.30418181 C88.78001082 108.39916961 88.14200545 108.4941574 87.48466659 108.59202361 C48.82823584 114.44064405 13.63367667 129.17258186 -10.58589005 161.38865447 C-32.10198519 191.22621743 -42.77946389 228.04410448 -37.2069838 264.69090056 C-31.96579642 294.99151514 -20.06879908 320.30194068 1.4180162 342.30418181 C2.14375838 343.091799 2.86950057 343.87941619 3.61723495 344.69090056 C22.47746108 364.66670385 47.72559166 374.31468824 73.79496932 380.66111541 C75.37716373 381.04900633 76.95564377 381.45328752 78.52543807 381.88865447 C86.58328583 383.98439153 93.69258522 383.79092117 102.4180162 384.30418181 C102.4180162 416.31418181 102.4180162 448.32418181 102.4180162 481.30418181 C68.61720483 481.46539395 68.61720483 481.46539395 54.3398912 481.49949431 C44.52209682 481.52313325 34.70444079 481.55076365 24.8867662 481.60593963 C17.73328756 481.64612308 10.57992229 481.67168846 3.4263339 481.68053579 C-0.35270218 481.68569796 -4.1314143 481.69761052 -7.91034532 481.72710204 C-47.73238899 482.02549019 -82.26446736 472.98520234 -111.4179213 444.62449431 C-133.67044467 421.93322742 -146.73522016 390.4026602 -146.72915483 358.72001433 C-146.73283151 357.67781729 -146.7365082 356.63562026 -146.7402963 355.56184149 C-146.75127838 352.08174413 -146.7551677 348.60167668 -146.75898576 345.12156463 C-146.7652547 342.62084651 -146.77190188 340.12012932 -146.77889848 337.61941314 C-146.79808231 330.12388315 -146.80872138 322.62836111 -146.81762627 315.13281381 C-146.82202099 311.59292785 -146.82738477 308.05304336 -146.83261514 304.51315856 C-146.84962211 292.72792791 -146.86411225 280.94269814 -146.87136388 269.15745711 C-146.87327341 266.10398903 -146.8751938 263.05052096 -146.87714982 259.99705291 C-146.87763356 259.23823513 -146.8781173 258.47941736 -146.8786157 257.6976051 C-146.88690109 245.42841112 -146.9122151 233.1593151 -146.9447305 220.89016381 C-146.97792443 208.26079345 -146.99582379 195.63147267 -146.99900812 183.00205851 C-147.00116206 175.92451481 -147.00974516 168.84711388 -147.03546929 161.76961303 C-147.05965154 155.10137883 -147.06292531 148.43344401 -147.05270791 141.76515937 C-147.0522159 139.33213295 -147.05843616 136.89909335 -147.07226396 134.46610618 C-147.27963807 95.7805116 -135.87078092 63.28480759 -108.5819838 35.30418181 C-78.71716787 5.34208635 -40.52782831 -0.25092992 0 0 Z " fill="#1D355C" transform="translate(169.58198380470276,11.695818185806274)"/>
<path d="M0 0 C0.65581055 0.19867676 1.31162109 0.39735352 1.98730469 0.60205078 C15.65770449 4.78590767 27.87936373 10.8824597 39 20 C35.82808911 24.98777143 32.23004632 29.47207977 28.4375 34 C24.05097863 39.27838671 19.71192909 44.58116235 15.5 50 C10.84289052 55.98462351 6.03601623 61.83588503 1.19799805 67.67480469 C-2.49989714 72.14818771 -6.1249011 76.66831863 -9.6875 81.25 C-21.74886437 96.74886437 -21.74886437 96.74886437 -28 103 C-32.71755298 98.30797234 -37.43104611 93.61189388 -42.1418457 88.91308594 C-43.74216818 87.31776699 -45.3433902 85.72334986 -46.94555664 84.12988281 C-49.2590937 81.82858669 -51.56928899 79.52397929 -53.87890625 77.21875 C-54.58648575 76.51633179 -55.29406525 75.81391357 -56.02308655 75.09020996 C-61.3307183 69.7831676 -66.35529018 64.2858516 -71.0625 58.4375 C-72.97450949 56.6768792 -72.97450949 56.6768792 -75.77612305 57.31713867 C-80.8652185 58.39507884 -85.82078816 59.85620242 -90.8125 61.3125 C-91.85470703 61.60833984 -92.89691406 61.90417969 -93.97070312 62.20898438 C-100.22816621 64.02769461 -106.13219015 66.16049715 -112 69 C-104.31037844 77.36264244 -96.56851329 85.67425702 -88.79296875 93.95703125 C-83.42736101 99.6733144 -78.08116184 105.40768797 -72.73388672 111.14111328 C-70.40705284 113.63569412 -68.07941739 116.12952622 -65.75170898 118.62329102 C-64.5857866 119.87241232 -63.4199335 121.12159832 -62.25415039 122.37084961 C-59.31376531 125.52170263 -56.37252492 128.67174969 -53.4296875 131.8203125 C-52.84106934 132.4505835 -52.25245117 133.08085449 -51.64599609 133.73022461 C-50.47575208 134.98225987 -49.30422475 136.23309702 -48.13134766 137.48266602 C-45.24434884 140.56455563 -42.39213896 143.66930239 -39.59375 146.83203125 C-39.05121582 147.43901855 -38.50868164 148.04600586 -37.94970703 148.67138672 C-36.92578822 149.81976325 -35.91058874 150.97599481 -34.90576172 152.14111328 C-33.3967323 153.87530745 -33.3967323 153.87530745 -31 156 C-27.02034493 156.46852726 -27.02034493 156.46852726 -25.0625 154.0859375 C-24.381875 153.19132813 -23.70125 152.29671875 -23 151.375 C-22.21625 150.37210938 -21.4325 149.36921875 -20.625 148.3359375 C-20.20347656 147.79420898 -19.78195312 147.25248047 -19.34765625 146.69433594 C-16.98431832 143.72303788 -14.48631791 140.86840416 -12 138 C-8.44419124 133.87646644 -4.93203319 129.72786697 -1.5 125.5 C1.93208013 121.2720752 5.44551171 117.1247211 9 113 C13.31934272 107.98685227 17.55097277 102.91462485 21.72265625 97.77734375 C24.28204054 94.65603633 26.88593791 91.5754997 29.5 88.5 C33.61871109 83.65324469 37.66600931 78.75469106 41.6796875 73.8203125 C44.29428789 70.64229654 46.95641424 67.50764815 49.625 64.375 C53.89543802 59.35832945 58.02232847 54.25378458 62 49 C65 50 65 50 66.8671875 53.1484375 C67.55250599 54.54955565 68.22065246 55.95915297 68.875 57.375 C69.40009155 58.50010986 69.40009155 58.50010986 69.93579102 59.64794922 C82.19353191 87.01971324 81.43360783 116.20417426 71 144 C59.5022781 171.0756437 37.9880333 191.53947577 10.95996094 202.85400391 C-1.73771929 207.75348102 -14.14174245 209.33217082 -27.6875 209.1875 C-29.42483398 209.1865332 -29.42483398 209.1865332 -31.19726562 209.18554688 C-50.06392665 209.08912442 -65.59607953 204.06306436 -82 195 C-82.97582031 194.46761719 -83.95164063 193.93523437 -84.95703125 193.38671875 C-107.02171977 180.36758336 -122.40574276 158.08655468 -130 134 C-130.21317871 133.32791504 -130.42635742 132.65583008 -130.64599609 131.96337891 C-138.29140602 106.66258935 -135.44590441 78.2323549 -123 55 C-122.53851563 54.0615625 -122.07703125 53.123125 -121.6015625 52.15625 C-117.94975171 44.97368292 -113.23691011 39.08898507 -108 33 C-107.53207031 32.38640625 -107.06414062 31.7728125 -106.58203125 31.140625 C-92.14215343 12.47985982 -66.75473045 0.67720179 -43.84033203 -2.69091797 C-29.43110961 -4.25891484 -13.90782204 -4.44044921 0 0 Z " fill="#1D355C" transform="translate(296,154)"/>
<path d="M0 0 C0.64582031 0.53367188 1.29164063 1.06734375 1.95703125 1.6171875 C1.35376347 5.03665795 0.12941711 6.94842901 -2.09765625 9.5859375 C-2.71253906 10.32199219 -3.32742188 11.05804688 -3.9609375 11.81640625 C-4.92966797 12.95529297 -4.92966797 12.95529297 -5.91796875 14.1171875 C-7.18686398 15.62704465 -8.45511492 17.13744355 -9.72265625 18.6484375 C-10.28710449 19.31423828 -10.85155273 19.98003906 -11.43310547 20.66601562 C-13.03413966 22.60648655 -14.54967764 24.5930362 -16.04296875 26.6171875 C-19.60915238 25.33510403 -22.25680222 23.82128879 -25.23046875 21.4921875 C-47.27445792 5.69454609 -76.04127658 1.52258958 -102.42578125 5.26953125 C-122.29830728 8.76362374 -138.62898323 17.85418885 -154.04296875 30.6171875 C-155.05359375 31.3803125 -156.06421875 32.1434375 -157.10546875 32.9296875 C-171.08971775 45.72378764 -180.87191143 63.52997811 -186.04296875 81.6171875 C-186.34332031 82.58011719 -186.64367187 83.54304688 -186.953125 84.53515625 C-192.08627042 103.75460769 -190.09674449 124.88907251 -184.04296875 143.6171875 C-183.81834961 144.31763184 -183.59373047 145.01807617 -183.36230469 145.73974609 C-174.7708027 171.5330108 -155.27687706 192.01639755 -131.49609375 204.453125 C-125.53856838 207.43188768 -119.42308965 209.69594658 -113.04296875 211.6171875 C-111.94339844 211.9678125 -110.84382813 212.3184375 -109.7109375 212.6796875 C-81.92030982 219.78272333 -52.05374363 213.65117343 -27.51171875 199.74609375 C-22.21349002 196.59190098 -17.58301975 192.77425873 -13.04296875 188.6171875 C-11.78226562 187.47830078 -11.78226562 187.47830078 -10.49609375 186.31640625 C9.35442801 167.48306961 20.84543701 140.74211666 22.1953125 113.50390625 C22.75522993 92.10796653 16.83827437 73.46285737 6.95703125 54.6171875 C7.80265625 53.65039062 8.64828125 52.68359375 9.51953125 51.6875 C15.82964717 44.45240911 22.0566344 37.19322575 27.95703125 29.6171875 C44.23897922 43.56768283 51.72472352 74.09296008 53.95703125 94.6171875 C54.09406477 98.30582453 54.10016948 101.98886039 54.08203125 105.6796875 C54.07478027 107.21604858 54.07478027 107.21604858 54.06738281 108.78344727 C53.96090187 122.26712881 52.73751784 134.63772973 48.95703125 147.6171875 C48.59609375 148.86628906 48.23515625 150.11539063 47.86328125 151.40234375 C42.29282108 169.29932895 33.04691983 185.32293954 20.95703125 199.6171875 C20.291875 200.41769531 19.62671875 201.21820313 18.94140625 202.04296875 C9.25061657 213.29505233 -2.03936615 222.45469507 -15.04296875 229.6171875 C-15.92710449 230.1114624 -15.92710449 230.1114624 -16.82910156 230.61572266 C-45.64645642 246.54832155 -81.85705558 253.82805898 -114.04296875 244.6171875 C-115.70640298 244.19672534 -117.37052334 243.77897241 -119.03515625 243.36328125 C-130.49847943 240.40507127 -140.78075047 236.50798081 -151.04296875 230.6171875 C-152.04602051 230.05257812 -152.04602051 230.05257812 -153.06933594 229.4765625 C-162.65123985 224.02455458 -170.79383557 217.8024814 -178.60400391 210.03271484 C-179.92310513 208.73509882 -181.28401183 207.48033994 -182.6484375 206.23046875 C-199.05780119 190.86462581 -209.2755524 170.74378026 -216.04296875 149.6171875 C-216.36136719 148.65683594 -216.67976562 147.69648438 -217.0078125 146.70703125 C-227.40995647 114.05154446 -222.16982317 76.39199464 -206.8203125 46.16796875 C-192.36565097 18.65559842 -170.43063335 -1.14377386 -143.04296875 -15.3828125 C-141.84994141 -16.01123047 -141.84994141 -16.01123047 -140.6328125 -16.65234375 C-95.8279485 -38.3209774 -38.55580151 -30.48598259 0 0 Z " fill="#B0B1B2" transform="translate(352.04296875,147.3828125)"/>
<path d="M0 0 C2.32412355 0.05019356 4.64835064 0.09581516 6.97265625 0.13671875 C12.65070537 0.24658412 18.32487266 0.41359211 24 0.625 C22.09685015 4.70506684 19.39165575 7.83110735 16.4375 11.1875 C15.34276361 12.44706003 14.24902202 13.70748534 13.15625 14.96875 C12.61742187 15.59007813 12.07859375 16.21140625 11.5234375 16.8515625 C9.4521603 19.26274159 7.44078991 21.71967909 5.4375 24.1875 C-0.0782562 30.97535854 -5.75198468 37.62699025 -11.41601562 44.29101562 C-16.15403662 49.86785638 -20.87842789 55.45082784 -25.5 61.125 C-31.04192098 67.92913786 -36.73308923 74.60475878 -42.41601562 81.29101562 C-47.90270514 87.74906926 -53.33777129 94.23997616 -58.6875 100.8125 C-61.7243277 104.5059391 -64.81960955 108.14798486 -67.91625977 111.79125977 C-70.7954532 115.18454109 -73.63204237 118.60767786 -76.4375 122.0625 C-80.39508188 126.92629025 -84.46542446 131.68381231 -88.55834961 136.43334961 C-91.58945289 139.95798919 -94.56985316 143.51539882 -97.5 147.125 C-100.93208013 151.3529248 -104.44551171 155.5002789 -108 159.625 C-112.31934272 164.63814773 -116.55097277 169.71037515 -120.72265625 174.84765625 C-123.28204026 177.96896334 -125.88592494 181.04951134 -128.5 184.125 C-133.40726989 189.89927261 -138.2244347 195.74103189 -143 201.625 C-146.2239517 200.20960657 -148.35666792 198.51085072 -150.8125 196 C-151.43769531 195.36835938 -152.06289063 194.73671875 -152.70703125 194.0859375 C-154.61275871 192.0406082 -156.45633355 189.96546927 -158.2890625 187.85546875 C-161.94385933 183.65710803 -165.73277351 179.60103438 -169.5625 175.5625 C-170.97812478 174.06404786 -172.39348445 172.56534522 -173.80859375 171.06640625 C-174.51226074 170.32148926 -175.21592773 169.57657227 -175.94091797 168.80908203 C-179.01356964 165.54989993 -182.07071291 162.27638552 -185.125 159 C-185.69420166 158.38954834 -186.26340332 157.77909668 -186.84985352 157.15014648 C-187.99408109 155.92278502 -189.13820594 154.6953278 -190.28222656 153.46777344 C-192.60270788 150.9784339 -194.92480733 148.49060707 -197.24707031 146.00292969 C-198.41066705 144.75635781 -199.57408014 143.50961449 -200.73730469 142.26269531 C-203.72521513 139.06004453 -206.71583486 135.8599892 -209.7109375 132.6640625 C-215.89542151 126.06024988 -222.05037337 119.44305039 -228 112.625 C-225.08437866 110.21265533 -222.55121944 108.97113308 -218.9296875 107.90625 C-217.95 107.61363281 -216.9703125 107.32101563 -215.9609375 107.01953125 C-214.43339844 106.57673828 -214.43339844 106.57673828 -212.875 106.125 C-211.38226563 105.68220703 -211.38226563 105.68220703 -209.859375 105.23046875 C-207.87513683 104.64245039 -205.88913472 104.06034979 -203.90136719 103.484375 C-201.98282652 102.91610984 -200.07154617 102.32266802 -198.16894531 101.703125 C-197.29077148 101.41953125 -196.41259766 101.1359375 -195.5078125 100.84375 C-194.73324707 100.58529297 -193.95868164 100.32683594 -193.16064453 100.06054688 C-190.69821159 99.56416491 -189.33890627 99.74488504 -187 100.625 C-184.66796875 102.62890625 -184.66796875 102.62890625 -182.1875 105.1875 C-181.37667969 106.01378906 -180.56585938 106.84007812 -179.73046875 107.69140625 C-177.76206922 109.7667801 -175.89997937 111.91139403 -174.046875 114.08984375 C-168.3958282 120.59042946 -162.17057212 126.5591074 -156.0625 132.625 C-154.79338627 133.8890885 -153.52450411 135.15340956 -152.25585938 136.41796875 C-149.1732368 139.48966724 -146.08749572 142.55820008 -143 145.625 C-138.08018864 140.23586674 -133.25487237 134.85280264 -128.8125 129.0625 C-124.63738417 123.66788991 -120.35376846 118.37636734 -116 113.125 C-111.76332988 108.01043551 -107.57933828 102.8659741 -103.5 97.625 C-98.30371889 90.95339767 -92.93153451 84.43463005 -87.54296875 77.91796875 C-82.52765008 71.8505428 -77.5746154 65.73279296 -72.61767578 59.61767578 C-70.9760329 57.59547699 -69.33038484 55.57660162 -67.68359375 53.55859375 C-62.587886 47.31016036 -57.52107927 41.04549445 -52.5625 34.6875 C-47.85304948 28.65001052 -43.00973018 22.72949246 -38.12133789 16.83618164 C-37.5721167 16.17352295 -37.02289551 15.51086426 -36.45703125 14.828125 C-35.87646973 14.16409668 -35.2959082 13.50006836 -34.69775391 12.81591797 C-32.893829 10.64166655 -32.893829 10.64166655 -31.67333984 7.90673828 C-25.28285807 -3.56445065 -11.37044454 -0.42504836 0 0 Z " fill="#E74C51" transform="translate(411,110.375)"/>
<path d="M0 0 C3 1 3 1 4.8671875 4.1484375 C5.55250599 5.54955565 6.22065246 6.95915297 6.875 8.375 C7.22506104 9.12507324 7.57512207 9.87514648 7.93579102 10.64794922 C20.19353191 38.01971324 19.43360783 67.20417426 9 95 C-2.4977219 122.0756437 -24.0119667 142.53947577 -51.04003906 153.85400391 C-60.79255192 157.61707028 -70.71506562 160.05200277 -81.19213867 160.01635742 C-82.09252365 160.01399582 -82.99290863 160.01163422 -83.920578 160.00920105 C-84.94989189 160.00464653 -84.94989189 160.00464653 -86 160 C-86.37283753 152.20961837 -86.67210824 144.4188334 -86.92163086 136.62353516 C-87.00977078 133.97367713 -87.12466573 131.32890463 -87.25170898 128.68017578 C-87.43189591 124.86251014 -87.55156099 121.04685518 -87.66015625 117.2265625 C-87.7284816 116.05324371 -87.79680695 114.87992493 -87.86720276 113.67105103 C-87.99125392 106.95683837 -87.16437318 103.43013913 -82.61254883 98.35620117 C-81.09270316 96.88564883 -79.55734432 95.43078081 -78 94 C-76.52334217 92.24441791 -75.06021312 90.47712289 -73.625 88.6875 C-70.29982081 84.58026647 -66.92342443 80.52511721 -63.5 76.5 C-60.14539595 72.55361117 -56.82777828 68.58357507 -53.5625 64.5625 C-49.60491812 59.69870975 -45.53457554 54.94118769 -41.44165039 50.19165039 C-37.66359544 45.7984375 -33.98614435 41.33219601 -30.3359375 36.83203125 C-27.64802996 33.57328047 -24.8895311 30.38116943 -22.125 27.1875 C-17.05242824 21.3180067 -12.22195602 15.28900963 -7.47265625 9.15625 C-5.05429151 6.04126481 -2.53967161 3.01671189 0 0 Z " fill="#2C426B" transform="translate(358,203)"/>
<path d="M0 0 C23.07484824 0 45.14188467 8.35856383 63 23 C59.82808911 27.98777143 56.23004632 32.47207977 52.4375 37 C48.05097863 42.27838671 43.71192909 47.58116235 39.5 53 C35.42123381 58.24142285 31.23631898 63.3851685 27 68.5 C21.29520979 75.38934482 15.72994603 82.374086 10.22851562 89.42626953 C8.28529701 91.91553567 6.33415997 94.39826053 4.375 96.875 C3.74335938 97.67679687 3.11171875 98.47859375 2.4609375 99.3046875 C1.97882813 99.86414063 1.49671875 100.42359375 1 101 C0.67 101 0.34 101 0 101 C0 67.67 0 34.34 0 0 Z " fill="#2C426B" transform="translate(272,151)"/>
</svg>
